# xmcd
#
# Track frame offsets: 
#        150
#        36167
#        75054
#        101155
#        127602
#        160814
#        183872
#        215930
#        253745
#        279286
#
# Disc length: 3990 seconds
#
# Revision: 1
# Processed by: cddbd v1.5.2PL0 Copyright (c) Steve Scherf et al.
# Submitted via: ExactAudioCopy v0.90b4
#
DISCID=7b0f940a
DTITLE=Wojciech Staroniewicz - Hand Made
DYEAR=2002
DGENRE=Jazz
TTITLE0=Hand-Made
TTITLE1=Next Door
TTITLE2=Among The Monks
TTITLE3=Favela
TTITLE4=On The Right Lines
TTITLE5=Mysterious
TTITLE6=Screwdriver Dance
TTITLE7=Hocus Pocus
TTITLE8=Alice In My land
TTITLE9=Haunted Ballroom
EXTD=YEAR: 2002
EXTT0=
EXTT1=
EXTT2=
EXTT3=
EXTT4=
EXTT5=
EXTT6=
EXTT7=
EXTT8=
EXTT9=
PLAYORDER=
